<?xml version="1.0" encoding="UTF-8"?>
<!DOCTYPE svg PUBLIC "-//W3C//DTD SVG 1.1//EN" "http://www.w3.org/Graphics/SVG/1.1/DTD/svg11.dtd">
<!-- Creator: CorelDRAW 2019 (64-Bit) -->
<svg xmlns="http://www.w3.org/2000/svg" xml:space="preserve" width="60mm" height="37.5mm" version="1.1" style="shape-rendering:geometricPrecision; text-rendering:geometricPrecision; image-rendering:optimizeQuality; fill-rule:evenodd; clip-rule:evenodd"
viewBox="0 0 6000 3750"
 xmlns:xlink="http://www.w3.org/1999/xlink"
 xmlns:xodm="http://www.corel.com/coreldraw/odm/2003">
 <defs>
  <style type="text/css">
   <![CDATA[
    .str0 {stroke:#B7B7B7;stroke-width:20;stroke-miterlimit:22.9256}
    .fil4 {fill:none}
    .fil1 {fill:#B7B7B7}
    .fil0 {fill:#E8E8E8}
    .fil3 {fill:whitesmoke}
    .fil2 {fill:white}
   ]]>
  </style>
   <clipPath id="id0">
    <path d="M229.5 4.6l5529.66 0c129.34,0 235.17,105.82 235.17,235.17l0 3279.65c0,129.35 -105.83,235.18 -235.17,235.18l-5529.66 0c-129.35,0 -235.17,-105.83 -235.17,-235.18l0 -3279.65c0,-129.35 105.82,-235.17 235.17,-235.17z"/>
   </clipPath>
 </defs>
 <g id="Capa_x0020_1">
  <metadata id="CorelCorpID_0Corel-Layer"/>
  <g>
  </g>
  <g style="clip-path:url(#id0)">
   <g>
    <g id="_2064495773872">
     <g id="_1850998752864">
      <rect class="fil0" x="-5.66" y="4.6" width="5999.99" height="3749.99"/>
      <rect class="fil1" x="-5.65" y="4.6" width="5999.99" height="485.02"/>
      <g>
       <rect class="fil2" x="2023.96" y="733.93" width="1397.17" height="206.9"/>
       <rect class="fil2" x="4649.34" y="733.94" width="913.5" height="328.87"/>
       <rect class="fil2" x="4649.34" y="1062.81" width="913.5" height="328.87"/>
       <rect class="fil2" x="4649.34" y="1391.68" width="913.5" height="328.87"/>
       <rect class="fil2" x="2023.96" y="999.02" width="1423.17" height="195.14"/>
       <rect class="fil2" x="2023.96" y="1251.18" width="1689.61" height="206.9"/>
       <rect class="fil2" x="2023.96" y="1509.8" width="1098.25" height="161.64"/>
       <rect class="fil2" x="2023.96" y="1716.69" width="1098.25" height="161.64"/>
       <rect class="fil2" x="2023.96" y="2088.46" width="1439.9" height="127.25"/>
       <rect class="fil2" x="2023.96" y="2550.74" width="1439.9" height="127.25"/>
       <rect class="fil2" x="2023.96" y="2253.33" width="1439.9" height="127.25"/>
       <rect class="fil2" x="2023.96" y="2715.61" width="1439.9" height="127.25"/>
       <rect class="fil2" x="237.37" y="2903.7" width="5513.94" height="131.96"/>
       <rect class="fil2" x="237.37" y="3126.17" width="5513.94" height="131.96"/>
       <rect class="fil2" x="237.37" y="3378.33" width="5513.94" height="131.96"/>
      </g>
      <polygon class="fil3" points="237.36,2765.29 1771,2765.29 1771,733.94 237.36,733.94 "/>
      <path id="Fill-4" class="fil1" d="M318.29 2503.21c46.08,-18.08 183.86,-73.95 232.9,-91.31l0.65 -0.24c70.26,-24.86 135.36,-48.03 171.77,-65.88 85.11,-41.97 70.92,-195.61 0,-293.38 -56.66,-139.76 -127.58,-365.07 -127.58,-439.99 0,-23.1 12.96,-44.33 24.52,-63.22 9.5,-15.42 17.95,-29.3 17.95,-41.58 -2.54,-7.59 -5.58,-14.69 -8.77,-22.28 -14.76,-34.48 -33.7,-79.04 -33.7,-223.47 0,-215.16 297.96,-298.96 425.53,-298.96 127.57,0 425.54,83.8 425.54,298.96 0,144.43 -18.95,188.99 -33.71,223.47 -3.2,7.59 -6.22,14.69 -8.77,22.28 0,12.28 8.44,26.16 17.96,41.58 11.56,18.89 24.52,40.12 24.52,63.22 0,74.92 -70.93,300.23 -127.58,439.99 -70.92,97.77 -85.11,251.41 0,293.38 36.4,17.85 101.5,41.02 171.85,65.88l0.57 0.24c49.04,17.36 160.66,94.33 205.59,114.69 26.7,14 73.48,33.09 73.48,41.39l0 197.31 -1533.65 0 0 -210.21c0,-16.34 49.33,-31.45 80.93,-51.87z"/>
      <path id="Fill-4_0" class="fil1" d="M5162.73 2477.81c12.7,-4.98 50.64,-20.37 64.15,-25.15l0.18 -0.07c19.35,-6.85 37.28,-13.23 47.31,-18.14 23.44,-11.56 19.53,-53.88 0,-80.81 -15.61,-38.49 -35.14,-100.55 -35.14,-121.18 0,-6.36 3.57,-12.21 6.75,-17.41 2.62,-4.25 4.95,-8.07 4.95,-11.46 -0.7,-2.09 -1.54,-4.04 -2.42,-6.13 -4.06,-9.5 -9.28,-21.77 -9.28,-61.55 0,-59.26 82.06,-82.34 117.2,-82.34 35.14,0 117.2,23.08 117.2,82.34 0,39.78 -5.21,52.05 -9.28,61.55 -0.88,2.09 -1.71,4.04 -2.42,6.13 0,3.39 2.33,7.21 4.95,11.46 3.18,5.2 6.75,11.05 6.75,17.41 0,20.63 -19.53,82.69 -35.14,121.18 -19.53,26.93 -23.44,69.25 0,80.81 10.03,4.91 27.96,11.29 47.34,18.14l0.15 0.07c13.51,4.78 44.25,25.98 56.63,31.59 7.35,3.85 20.24,9.11 20.24,11.39l0 54.35 -422.41 0 0 -57.9c0,-4.5 13.59,-8.66 22.29,-14.28z"/>
      <path class="fil4 str0" d="M4649.34 1391.69l913.51 0m-913.51 -328.88l913.51 0"/>
     </g>
    </g>
   </g>
  </g>
  <path class="fil4" d="M229.5 4.6l5529.66 0c129.34,0 235.17,105.82 235.17,235.17l0 3279.65c0,129.35 -105.83,235.18 -235.17,235.18l-5529.66 0c-129.35,0 -235.17,-105.83 -235.17,-235.18l0 -3279.65c0,-129.35 105.82,-235.17 235.17,-235.17z"/>
 </g>
</svg>
