<?xml version="1.0" encoding="UTF-8"?>
<!DOCTYPE svg PUBLIC "-//W3C//DTD SVG 1.1//EN" "http://www.w3.org/Graphics/SVG/1.1/DTD/svg11.dtd">
<!-- Creator: CorelDRAW 2019 (64-Bit) -->
<svg xmlns="http://www.w3.org/2000/svg" xml:space="preserve" width="60mm" height="37.5mm" version="1.1" style="shape-rendering:geometricPrecision; text-rendering:geometricPrecision; image-rendering:optimizeQuality; fill-rule:evenodd; clip-rule:evenodd"
viewBox="0 0 6000 3750"
 xmlns:xlink="http://www.w3.org/1999/xlink"
 xmlns:xodm="http://www.corel.com/coreldraw/odm/2003">
 <defs>
  <style type="text/css">
   <![CDATA[
    .str0 {stroke:#B7B7B7;stroke-width:20;stroke-miterlimit:22.9256}
    .fil2 {fill:none}
    .fil3 {fill:black}
    .fil0 {fill:#E8E8E8}
    .fil1 {fill:white}
   ]]>
  </style>
   <clipPath id="id0">
    <path d="M229.5 4.6l5529.66 0c129.35,0 235.17,105.82 235.17,235.17l0 3279.66c0,129.35 -105.82,235.17 -235.17,235.17l-5529.66 0c-129.35,0 -235.17,-105.82 -235.17,-235.17l0 -3279.66c0,-129.35 105.82,-235.17 235.17,-235.17z"/>
   </clipPath>
 </defs>
 <g id="Capa_x0020_1">
  <metadata id="CorelCorpID_0Corel-Layer"/>
  <g>
  </g>
  <g style="clip-path:url(#id0)">
   <g>
    <g id="_2065559201968">
     <g id="_1850945665472">
      <rect class="fil0" x="-5.66" y="4.6" width="6000" height="3750"/>
      <rect class="fil1" x="212" y="82.16" width="1304.65" height="724.14"/>
      <rect class="fil1" x="212" y="806.29" width="1304.65" height="724.14"/>
      <rect class="fil1" x="1516.65" y="82.16" width="1304.65" height="724.14"/>
      <rect class="fil1" x="1516.65" y="806.29" width="1304.65" height="724.14"/>
      <rect class="fil1" x="2821.3" y="82.16" width="1304.65" height="724.14"/>
      <rect class="fil1" x="2821.3" y="806.29" width="1304.65" height="724.14"/>
      <rect class="fil1" x="237.36" y="1679.14" width="951.27" height="131.96"/>
      <rect class="fil1" x="1576.05" y="1679.14" width="951.27" height="131.96"/>
      <rect class="fil1" x="2953.73" y="1679.14" width="951.27" height="131.96"/>
      <rect class="fil1" x="237.36" y="1937.76" width="522.37" height="131.96"/>
      <rect class="fil1" x="237.36" y="2276.17" width="1571.88" height="131.96"/>
      <rect class="fil1" x="237.36" y="2524.51" width="3781.37" height="131.96"/>
      <rect class="fil1" x="1576.05" y="1937.76" width="522.37" height="131.96"/>
      <rect class="fil1" x="2953.73" y="1937.76" width="522.37" height="131.96"/>
      <rect class="fil1" x="237.36" y="2778.28" width="4785.39" height="801.73"/>
      <rect class="fil1" x="5464.64" y="2118.79" width="363.91" height="1461.21"/>
      <rect class="fil1" x="4735.13" y="82.16" width="1093.43" height="1448.28"/>
      <path class="fil2 str0" d="M1516.65 82.16l0 1448.27m1304.65 -1448.27l0 1448.27m-2609.3 -724.13l3913.96 0"/>
      <g>
       <path class="fil3" d="M4877.82 512.59c0,17.05 4.38,29.91 5.63,44.75 -7.18,-3.42 -8.9,-5.42 -16.29,0.5 -19.09,15.29 18.31,97.78 33.12,119.82 6.26,9.32 11.25,16.77 18.51,26.34 8.44,11.15 12.57,16.09 21.54,26.12 43.52,48.6 64.26,45.62 86.56,101.3 36.9,92.14 -5.98,124.73 43.28,242.25 15.5,36.98 51.49,84.81 82.58,105.26 94.81,62.38 187.04,47.75 281.76,-14.58 18.1,-11.9 36.75,-27.72 51.28,-44.08 13.35,-15.04 48.36,-53.83 13.38,-53.83 -6.65,0 -22.36,26.49 -40.07,44.06 -16.65,16.51 -25.39,24.86 -45.92,38.23 -36.95,24.08 -79.18,38.87 -124.4,44.13 -92.76,10.78 -166.59,-56.93 -198.52,-136.38 -21.61,-53.77 -20.3,-75.3 -21.14,-146.8 -0.52,-44.08 -21.25,-103.8 -41.02,-129.82 -13.75,-18.11 -27.63,-25.56 -44.12,-40.02 -36.45,-31.95 -94.91,-110.15 -94.91,-160.12l5.72 11.09c1.88,3.95 3.54,7.36 5.52,11.3 3.65,7.26 7.28,15.29 11.34,22.28 3.39,5.82 9.1,14.46 13.55,20.09 52.97,67.05 124.19,98.77 146.33,167.7 12.46,38.81 10.74,108.8 31.21,108.8 21.04,0 8.53,-30.88 5.15,-55.47 -3.17,-23.08 -6.97,-43.9 -13.89,-64.5 -12.08,-35.95 -27.37,-48.04 -46.63,-71.09 -26.17,-31.32 -68.95,-56.3 -100.94,-98.18 -76.13,-99.69 -46.2,-220.12 59.78,-276.73 93,-49.69 308.51,1.81 398.02,81.4 14.27,12.69 38.57,33.38 49.95,48.2 5.83,7.59 9.84,10.32 16.04,17.61 100.64,118.38 121.72,255.25 121.72,410.37 0,92.33 -45.31,236.79 -106.09,297.25 -10.45,10.4 -25.39,21.08 -37.81,29.51 -39.91,27.09 -42.36,15.45 -36.03,42.48 19.71,0 27.33,-5.98 48.62,-21.56 15.21,-11.14 27.32,-19.71 41.78,-31.16 37.25,-29.48 85.45,-142.66 97.44,-191.17 38.11,-154.16 15.53,-338.3 -55.68,-475.02 -37.1,-71.22 -131.65,-163.63 -207.1,-199.56 -80.95,-38.54 -164.64,-52.18 -262.44,-52.18 -90.15,0 -196.81,93 -196.81,201.41z"/>
       <path class="fil3" d="M5139.29 887.42c0,52.76 -17.62,85.64 10.3,135.2 6.4,11.36 20.93,32.28 29.68,40.41 13.16,12.25 26.06,20.04 42.46,27.69 16.96,7.91 35.53,13.87 55.33,9.29 10.29,-42.79 -27.61,-3.47 -76.66,-52.41 -62.29,-62.14 -35.8,-92.14 -35.8,-154.59 0,-69.76 -21.3,-120.22 -52.19,-160.67l-35.8 -42.7c-16.88,-20.1 -39.74,-36.13 -65.08,-69.52 -15,-19.75 -29.09,-42.94 -37.03,-69.45 -9.4,-31.34 -6.81,-59.3 9.51,-83.49 63.73,-94.45 223.65,-73.44 309.93,-30.13 20.87,10.48 41.7,21.12 60.66,34.75 31.95,22.98 27.43,20.84 51.06,47.1 93.93,104.37 120.18,264.09 90.04,404.23 -7.99,37.12 -20.87,66.24 -37.82,96.64 -58.83,105.49 -205.18,152.47 -293.76,41.55 -61.26,-76.72 -28.61,-137.54 -58.57,-137.54 -31.75,0 1.41,106.79 44.54,159.88 12.49,15.37 36.78,35.76 55.69,45.3 143.61,72.41 282.57,-50.05 312.4,-191.86 35.48,-168.75 9.85,-303.22 -93.29,-434.54 -93.69,-119.29 -358.53,-182.01 -450.33,-64.36 -42.71,54.72 -37.55,108.74 -3.87,166.61 53.4,91.74 168.6,138.34 168.6,282.61z"/>
       <path class="fil3" d="M5173.03 660.84l-2.81 -2.8 -2.81 -2.79 -2.81 -2.8 -2.82 -2.8 -2.81 -2.8 -2.81 -2.79 -2.81 -2.8 -2.81 -2.8 -2.81 -2.8 -2.81 -2.79c-7.01,-4.67 -11.61,-7.64 -14.06,-16.79 -24.78,-16.51 -121.46,-132.48 2.87,-131.6 70.93,0.5 127.92,34.55 178.7,74.03 55.88,43.44 97.39,130.91 109.66,204.19 7.14,42.71 5.95,76.54 3.99,119.14 -0.46,9.89 -2.41,16.39 -4.28,26.82 -0.86,4.79 -2.61,7.88 -0.73,14.31l7.81 9.2c19.9,-1.65 17.99,-18.07 20.97,-37.88 2.26,-15.09 2.9,-41.49 4.01,-54.93 2.12,-25.46 -5.81,-77.68 -11.6,-105.13 -13.11,-62.21 -42.99,-114.94 -77.62,-157.73 -93.98,-116.1 -286.49,-153.68 -315.17,-77.76 -11.24,29.73 9.83,72.45 21.91,89.8 14.2,20.38 60.91,67.64 84.11,92.54 27.92,29.97 59.76,72.59 59.82,116.73 0.09,75.42 -29.46,149.36 20.18,198.09 20.54,20.17 57.13,28.89 90.37,12.8 28.56,-13.83 31.41,-20.36 47.58,-39.38 6.99,-8.22 7.64,-8.98 7.64,-23.16 -19.8,-10.43 -17.08,-4.43 -31.76,13.16 -34.4,41.23 -87.9,45.85 -108.88,0.89 -27.22,-58.38 16.21,-136.62 -6.81,-205.82 -15.54,-46.72 -56.87,-79.66 -60.6,-93.55z"/>
       <path class="fil3" d="M5257.37 713.99c-11.97,-7.98 -7.38,-6.3 -22.49,-2.8 -5.88,25.12 16.12,35.86 26.06,74.78 13.04,51.03 -30.36,159.68 22.35,179.29 18.66,6.95 49.31,-3.79 59.09,-15.65 5.1,-6.18 4.96,-12.28 4.96,-23.03 -6.41,-1.49 -6.46,-2.17 -14.05,-2.8 12.51,-23.53 10.67,-57.18 8.27,-89.35 -2.06,-27.64 -8.59,-65.84 -14.08,-92.29 -14.53,-69.97 -46.99,-174.83 -122.75,-193.96 -41.35,-10.44 -57.29,11.82 -42.65,48.03 20.39,50.45 78.79,47.27 95.29,117.78z"/>
       <path class="fil3" d="M5175.84 789.51c31.69,0 -11.27,-73.81 -21.66,-87.54 -24.79,-32.76 -38.22,-40.68 -51.44,-57.91 -35.04,-45.7 -140.41,-116.85 -64.75,-170.72 32,-22.78 77.74,-16.7 123.79,-16.7 61.93,0 111.11,24.82 150.95,48.43 26.31,15.58 36.23,22.95 57.83,43.16 2.73,2.55 3.34,2.85 5.96,5.26l2.89 2.72c1.68,1.66 2.46,2.64 4.05,4.36 4.45,4.84 8.05,8.13 12.12,13.12 5.67,6.95 15.51,25.61 24.86,25.61 8.42,0 12.77,-8.46 12.4,-13.35 -2.36,-31.24 -140.43,-154.48 -271.06,-154.48l-70.28 0c-46.32,0 -88.52,29.42 -100.94,61.82 -20.48,53.44 33.07,101.91 60.91,131.85l58.95 64.42c58.15,59.57 46.19,99.95 65.42,99.95z"/>
       <path class="fil3" d="M4872.2 806.3c0,37.94 32.13,-21.5 59.1,36.3 22.85,48.97 13.08,167.99 17.84,205.85 1.81,14.36 8.82,33.57 13.39,45.61 29.08,76.66 114.81,155.25 185.2,187.77 51.94,24 104.57,36.36 165.88,36.36 17.8,0 42.17,-2.83 42.17,-19.58 0,-19.24 -24.41,-5.59 -33.74,-5.59 -135.13,0 -246.06,-64.62 -309.29,-159.42 -15.5,-23.23 -36.44,-67.63 -40.44,-96.57 -0.03,-0.16 -0.84,-129.43 -5.23,-160.09 -15.91,-111.11 -94.88,-92.03 -94.88,-70.64z"/>
       <path class="fil3" d="M5130.86 616.08c7,4.67 11.6,7.64 14.06,16.79l2.81 2.79 2.81 2.8 2.81 2.8 2.81 2.8 2.81 2.79 2.81 2.8 2.82 2.8 2.81 2.8 2.81 2.79 2.81 2.8c40.57,27.02 25.44,37.25 53.42,30.77 4.39,-16.47 4.22,-11.21 -17.57,-32.87 -25.26,-25.09 -64.08,-59.98 -76.93,-91.3 -6.48,-15.79 -11.83,-29.08 5.21,-37.39 11.43,-5.58 31.77,-8.22 49.29,-5.64 30,4.4 54.53,20.7 75.4,36.87 16.93,13.11 40.78,42.43 50.84,61.3 36.75,68.91 54.46,145.51 54.35,225.67l-3.1 53.24c1.84,19.63 24.66,21.28 25.74,-2.72 2.87,-63.66 5.48,-86.2 -7.86,-154.74 -12.28,-63.07 -32.25,-116.37 -64.57,-159.54 -95.33,-127.36 -253.25,-100.8 -208.03,-5.62 3.44,7.24 6.69,12.1 10.2,17.82 6.79,11.04 9.18,10.98 11.44,19.39z"/>
       <path class="fil3" d="M4889.07 741.96c4.51,8.49 3.96,7.96 11.53,13.7 5.91,4.48 10.72,7.41 16.57,11.49 35.21,24.6 68.09,48.14 77.62,90.61l19.58 204.3c19.31,104.8 130.8,202.98 243,202.98 37.3,0 56.24,5.12 56.24,-16.78 0,-10.79 -8.96,-8.71 -19.44,-8.63 -9.45,0.07 -18.93,0.22 -28.4,0.27 -61.89,0.37 -104.4,-21.1 -148.58,-56.37 -72.61,-57.97 -85.9,-137.06 -90.36,-228.97 -6.33,-130.29 2.17,-137.27 -106.8,-215.44 -6.7,-4.8 -9.96,-8.89 -19.72,-11.15 -5.24,4.54 -7.74,7.4 -11.24,13.99z"/>
       <path class="fil3" d="M5549.15 472.8c3.31,12.11 26.99,38.05 40.89,61.26 13.6,22.7 23.94,43.5 34.87,68.81 22.94,53.13 49.55,138.73 51.47,203.34 3.12,104.6 -0.43,174.97 -24.28,278.13 -4.17,18.05 -13.17,35.25 7.32,35.25 12.88,0 15.17,-19.99 18,-32.45 12.37,-54.64 24.45,-131.48 24.16,-188.55l0.06 -47.46c-1.01,-17.39 1.5,-35.32 -0.81,-52.46 -12.96,-96.16 -14.24,-113.35 -54.26,-208.96 -10.59,-25.31 -22.52,-47.82 -36.1,-70.38 -8.5,-14.13 -32.23,-53.1 -49.45,-57.09l-11.87 10.56z"/>
       <path class="fil3" d="M5372.65 1346.16c0.56,-0.37 1.34,-1.72 1.66,-1.13 0.34,0.61 1.43,-0.82 1.89,-0.92 3.78,-0.8 3.68,-0.75 7.69,-0.75l15.64 -6.82c25.15,-9.45 27.59,-11.83 50.97,-24.8 61.35,-34.04 120.48,-80.64 147.48,-146.98 24.34,-59.81 29.89,-89.35 39.45,-156.57 3.54,-24.9 18.96,-159.46 7.93,-182.31 -12.78,-6.11 -13.94,-0.11 -22.49,5.59 0,139.04 -12.82,288.69 -78.66,374.89 -29.58,38.71 -101.92,86.26 -147.83,104.67 -13.62,5.47 -22.84,8.45 -39.35,11.2 -5.89,0.98 -18.39,1.25 -22.47,2.93 -3.44,1.41 -5.97,3.97 -7.21,6.91 -4.02,9.51 -2.14,4.31 0.31,8.5 0.21,0.43 -3.66,10.13 19.31,8.46 11.03,-0.8 11.19,-2.87 25.68,-2.87z"/>
       <path class="fil3" d="M5069 216.08c0,7.9 6.46,10.79 11.25,13.98 12.7,-2.94 22.24,-8.93 38.19,-12.35 46.66,-10.01 88.01,-5.88 134.04,3.24 105.99,21.03 189.09,68.63 262.88,141.26 20.91,20.59 50.88,58.83 67.51,83.89 13.69,20.63 25.94,14.36 25.94,-3.44 0,-6.71 -35.26,-52.27 -41.54,-59.38 -52.06,-58.91 -97.52,-102.13 -172.13,-139.23 -76.75,-38.16 -159.83,-61.56 -250.13,-55.85 -19.3,1.21 -76.01,11.37 -76.01,27.88z"/>
       <path class="fil3" d="M5428.88 630.07c0,20.35 42.17,83.42 42.17,162.24 0,106.2 -3.81,215.79 -101.17,265.78 -73.07,37.52 -88,2.48 -78.77,41.92 62.36,14.45 130.46,-43.81 159.66,-78.92 40.48,-48.69 45.58,-153.24 45.58,-225.98 0,-42.05 -9.39,-74.05 -20.03,-105.94 -5.41,-16.22 -10.85,-30.1 -17.67,-46.76 -2.6,-6.34 -6.45,-16.25 -11.3,-19.91 -6.98,-5.28 -18.47,-2.71 -18.47,7.57z"/>
       <path class="fil3" d="M5035.27 255.24c0,20.45 7.4,17.01 28.06,11.21 40.99,-11.49 81.25,-12.26 123.36,-8.01 105.27,10.6 180.08,49.6 256.26,108.67 17.28,13.4 31.02,27.92 48.2,41.56 11.36,9.02 24.82,26.53 34.85,32.7 14.87,9.16 7.44,1.29 18.15,1.29 6.45,-26.81 -6.47,-21.33 -41.46,-56.66 -9.04,-9.13 -15.07,-12.59 -23.91,-20.97 -97.42,-92.31 -234.93,-142.07 -373.02,-131.96 -12.13,0.88 -70.49,8.32 -70.49,22.17z"/>
       <path class="fil3" d="M5383.89 1343.36c-0.56,0.37 -1.34,0.39 -1.66,1.14 -0.34,0.78 -1.43,0.82 -1.89,0.92 -3.78,0.8 -3.68,0.74 -7.69,0.74l-22.6 5.49c-68.17,8.96 -73.13,3.83 -132.17,-0.05 -13.11,-0.86 -29.52,0.18 -24.43,15.69 2.21,6.76 2.4,5.99 9.11,8.19 25.96,8.55 124.52,5.73 157.25,-0.13 107.25,-19.21 186.83,-67.77 251.42,-152.66l31.92 -52.29c5.98,-11.01 4.91,-11.32 2.21,-22.84 -10.49,-2.77 -11.99,-5.61 -19.45,2.82 -1.16,1.32 -8.95,14.69 -10.54,17.69 -25.83,48.72 -62.6,90.42 -107.78,122.14 -26.12,18.35 -91.29,52.44 -123.7,53.15z"/>
       <path class="fil3" d="M5369.84 367.13c0,9.78 30.38,22.95 48.93,35.24 59.91,39.66 102.44,99.42 134.81,162.37 5.36,10.41 8.23,19.39 13.03,29 25.82,51.66 42.93,102.64 51.92,160.93 2.95,19.18 -3.05,32.04 15.59,32.04 33.4,0 -16.25,-136.9 -22.9,-153.44 -37.08,-92.33 -68.61,-151.32 -136.62,-219.33l-51.18 -38.58c-4.33,-2.55 -53.58,-38.89 -53.58,-8.23z"/>
       <path class="fil3" d="M5428.88 932.17c-22.48,1.86 -14.98,17.19 -34.47,44.04 -27.02,37.23 -47.6,51.88 -92.55,64.57 -48.47,13.69 -119.74,-32.74 -106.84,-120.3 3.28,-22.28 9.08,-46.28 9.13,-69.43 0.05,-21.92 -5.1,-58.63 -28.31,-47.55 -7.38,15.31 0.72,20.17 2.51,33.86 7.57,57.87 -38,108.86 14.31,181.58 10.21,14.18 31.94,32.36 49.75,40.01 25.51,10.96 43.41,11.84 71.28,4.78 54.3,-13.76 94.23,-52.41 117.32,-101.51 7.44,-15.82 10.92,-17.73 -2.13,-30.05z"/>
       <path class="fil3" d="M5212.39 160.13c0,21.99 17.64,9.15 68.26,18.81 66.42,12.66 121.11,40.4 171.61,81.01 17.36,13.96 29.16,23.78 44.8,39.35 13.07,13.01 31.01,28.68 41.89,42.24 7.08,8.83 12.87,14.54 19.28,22.77 6.14,7.88 11.94,14.91 18.78,23.27 13.26,16.19 25.9,40.08 40.24,43.89 20.53,-13.68 12.12,-16.53 -22.46,-61.57l-56.94 -66.43c-84.11,-82.73 -177.32,-154.53 -314.21,-154.53 -6.58,0 -11.25,4.65 -11.25,11.19z"/>
       <path class="fil3" d="M4903.13 1021.68c0,72.35 35.75,123.07 76.3,173.04 24.7,30.44 51.97,53.52 83.12,76.74 16.51,12.31 30.96,21.6 49.49,31.88 35.3,19.59 76.54,39.06 120.03,40.02 26.71,-39.68 -21.72,-11.73 -98.28,-56.06 -18.56,-10.75 -36.2,-21.28 -53.53,-33.45 -8.43,-5.92 -14.98,-11.6 -23.73,-18.36 -24.55,-18.97 -45.53,-39.93 -64.66,-64.33 -75.07,-95.75 -58.53,-134.46 -65.19,-150.62 -5.64,-13.68 -23.55,-11.14 -23.55,1.14z"/>
       <path class="fil3" d="M4897.5 369.93c0,9.11 6.69,11.19 14.06,11.19 9.97,0 11.56,-14.19 35.28,-32.04 13.26,-9.98 28.57,-17.82 43.8,-23.55 49.08,-18.47 68.91,-15.58 115.68,-21.97 21.5,-2.94 102.75,4.1 126.89,9.29 18.95,4.07 36.75,8.93 52.32,15.08 36.46,14.42 61.81,38.85 61.81,8.43 0,-23.89 -124.6,-54.81 -168.6,-56.04 -41.3,-1.15 -66,-2.83 -106.79,0.23 -25.66,1.91 -68.52,13.69 -90.14,22.21 -24.53,9.67 -84.31,41.07 -84.31,67.17z"/>
       <path class="fil3" d="M5510.41 630.07c0,22.06 71.15,102.15 35.79,304.14 -3.02,17.26 -7.37,33.43 -12.9,48.7 -8.07,22.29 -36.33,55.56 -6.02,55.56 17.35,0 38.47,-70.47 41.84,-89.85 11.49,-66.11 19.15,-178.28 -2.11,-240.6l-28.33 -72.51c-6.01,-12.08 -5.56,-10.59 -17.02,-16.63l-4.62 3.79c-4.37,4.12 -6.63,3.97 -6.63,7.4z"/>
       <path class="fil3" d="M5265.81 1438.47c-26.95,0 -55.9,-3.4 -78.21,-8.89 -47.74,-11.75 -76.42,-37.32 -76.42,-7.89 0,22.51 115.84,41.96 146.19,41.96 59.3,0 115.65,-8.73 168.37,-25.5 10.85,-3.46 36.88,-8.39 36.88,-22.06 0,-32.9 -69.65,22.38 -196.81,22.38z"/>
       <path class="fil3" d="M5302.36 1399.31c-28.04,0 -51.23,-5.26 -61.85,-2.8 -7.33,31.3 24.83,27.97 61.85,27.97 45.47,0 81.03,-10.25 114.87,-22.77 27.22,-10.07 90.37,-31.52 90.37,-55.55 0,-9.49 -4.94,-8.39 -14.06,-8.39l-40.29 21.45c-43.49,21.81 -97.65,40.09 -150.89,40.09z"/>
       <path class="fil3" d="M5369.84 1225.88c0,41.4 79.65,-16.01 103.34,-39.84l65.38 -83.2c9.88,-18.85 35.73,-64.37 8.4,-64.37 -15.22,0 -18.69,42.96 -50.56,83.96 -6.69,8.6 -13.72,17.87 -21.8,25.87 -21.21,21 -46.25,47.45 -73.3,61.33 -11.83,6.07 -31.46,3.39 -31.46,16.25z"/>
       <path class="fil3" d="M4869.39 867.83c0,27.61 20.42,8.68 33.74,5.6 8.13,34.73 11.24,33.29 11.24,81.12 0,20.96 -10.16,33.57 14.06,33.57 12.31,0 11.24,-26.19 11.24,-36.37 0,-17.74 -1.95,-50.91 -5.46,-64.49 -17.52,-67.68 -64.82,-27.89 -64.82,-19.43z"/>
       <path class="fil3" d="M4917.18 1164.34c-3.77,16.11 1.98,23.26 10.62,36.99 10.64,16.88 99.03,112.38 99.03,60.92 0,-8.96 -18.52,-14.3 -27.01,-20.68l-48.18 -49.98c-14.53,-20.11 -10.3,-36.58 -34.46,-27.25z"/>
       <path class="fil3" d="M5029.02 1289.6c4.99,19.26 41.38,37.77 56.83,45.39 11.05,5.46 22.65,11.76 33.79,16.74 4.95,2.21 12.23,5.28 18.03,7.47 16.77,6.33 8,0.95 18.49,0.95 7.68,-31.9 -10.18,-18.11 -56.11,-44.87l-59.16 -36.25 -11.87 10.57z"/>
       <path class="fil3" d="M5622.87 484.61c-6.59,27.4 4.81,16.33 22.13,61.9 15.71,41.33 8.02,36.63 14.42,63.98 24.67,5.72 22.49,-3.25 22.49,-19.58 0,-20.58 -11.35,-50.11 -18.7,-65.31 -15.1,-31.2 -20.23,-48.75 -40.34,-40.99z"/>
       <path class="fil3" d="M5080.25 1374.14c0,17.24 27.13,19.53 45.31,24.85 11.73,3.42 72.77,24.59 72.77,0.32 0,-11.16 -11.14,-12.81 -21.98,-14.49 -54.79,-8.47 -96.1,-35.19 -96.1,-10.68z"/>
      </g>
     </g>
    </g>
   </g>
  </g>
  <path class="fil2" d="M229.5 4.6l5529.66 0c129.35,0 235.17,105.82 235.17,235.17l0 3279.66c0,129.35 -105.82,235.17 -235.17,235.17l-5529.66 0c-129.35,0 -235.17,-105.82 -235.17,-235.17l0 -3279.66c0,-129.35 105.82,-235.17 235.17,-235.17z"/>
 </g>
</svg>
