<?xml version="1.0" encoding="UTF-8"?>
<!DOCTYPE svg PUBLIC "-//W3C//DTD SVG 1.1//EN" "http://www.w3.org/Graphics/SVG/1.1/DTD/svg11.dtd">
<!-- Creator: CorelDRAW 2019 (64-Bit) -->
<svg xmlns="http://www.w3.org/2000/svg" xml:space="preserve" width="12.6998mm" height="6.3922mm" version="1.1" style="shape-rendering:geometricPrecision; text-rendering:geometricPrecision; image-rendering:optimizeQuality; fill-rule:evenodd; clip-rule:evenodd"
viewBox="0 0 1269.98 639.22"
 xmlns:xlink="http://www.w3.org/1999/xlink">
 <defs>
  <style type="text/css">
   <![CDATA[
    .fil0 {fill:black}
   ]]>
  </style>
 </defs>
 <g id="Capa_x0020_1">
  <metadata id="CorelCorpID_0Corel-Layer"/>
  <path class="fil0" d="M377.18 259.71l515.62 0 0 124.02 -515.62 0 0 -124.02zm-57.3 -257.6l253.05 0 0 126.56 -273.12 0c-99.25,0 -180.45,81.14 -180.45,180.29l0 25.51c0,99.16 81.2,180.29 180.45,180.29l273.12 0 0 126.57 -253.05 0c-175.94,0 -319.88,-143.82 -319.88,-319.61l0 0c0,-175.79 143.94,-319.61 319.88,-319.61zm377.17 0l253.05 0c175.94,0 319.88,143.82 319.88,319.61l0 0c0,175.79 -143.94,319.61 -319.88,319.61l-253.05 0 0 -126.57 273.12 0c99.25,0 180.45,-81.13 180.45,-180.29l0 -25.51c0,-99.15 -81.2,-180.29 -180.45,-180.29l-273.12 0 0 -126.56z"/>
 </g>
</svg>
